<svg width="76" height="76" viewBox="0 0 76 76" fill="none" xmlns="http://www.w3.org/2000/svg">
<g clip-path="url(#clip0_3335_1555)">
<path d="M57 2H18C8.61116 2 1 9.61116 1 19V58C1 67.3888 8.61116 75 18 75H57C66.3888 75 74 67.3888 74 58V19C74 9.61116 66.3888 2 57 2Z" fill="url(#paint0_linear_3335_1555)"/>
<g opacity="0.38">
<g filter="url(#filter0_i_3335_1555)">
<path d="M57 6C64.17 6 70 11.83 70 19V58C70 65.17 64.17 71 57 71H18C10.83 71 5 65.17 5 58V19C5 11.83 10.83 6 18 6H57ZM57 2H18C8.61 2 1 9.61 1 19V58C1 67.39 8.61 75 18 75H57C66.39 75 74 67.39 74 58V19C74 9.61 66.39 2 57 2Z" fill="url(#paint1_radial_3335_1555)"/>
</g>
<path d="M57 6C64.17 6 70 11.83 70 19V58C70 65.17 64.17 71 57 71H18C10.83 71 5 65.17 5 58V19C5 11.83 10.83 6 18 6H57ZM57 2H18C8.61 2 1 9.61 1 19V58C1 67.39 8.61 75 18 75H57C66.39 75 74 67.39 74 58V19C74 9.61 66.39 2 57 2Z" stroke="url(#paint2_linear_3335_1555)"/>
</g>
<g filter="url(#filter1_i_3335_1555)">
<path d="M57 2H18C8.61116 2 1 9.61116 1 19V58C1 67.3888 8.61116 75 18 75H57C66.3888 75 74 67.3888 74 58V19C74 9.61116 66.3888 2 57 2Z" fill="url(#paint3_radial_3335_1555)" fill-opacity="0.88"/>
</g>
<path d="M18 2.5H57C66.1127 2.5 73.5 9.8873 73.5 19V58C73.5 67.1127 66.1127 74.5 57 74.5H18C8.8873 74.5 1.5 67.1127 1.5 58V19C1.5 9.8873 8.8873 2.5 18 2.5Z" stroke="url(#paint4_linear_3335_1555)"/>
<path d="M20.9663 55.0339C17.0112 51.0789 17.0112 44.607 20.9663 40.652L32.5433 29.075C36.4983 25.12 42.9702 25.12 46.9251 29.075C50.8801 33.0299 50.8801 39.5018 46.9251 43.4568L35.3481 55.0339C31.393 58.9889 24.9213 58.9889 20.9663 55.0339Z" stroke="url(#paint5_linear_3335_1555)" stroke-width="1.90476" stroke-miterlimit="10" stroke-linecap="round" stroke-linejoin="round"/>
<path d="M42.1312 38.6629C40.8074 39.9867 38.6611 39.9867 37.3373 38.6629C36.0135 37.3391 36.0135 35.1927 37.3373 33.8689C38.6611 32.5452 40.8074 32.5452 42.1312 33.8689C43.455 35.1927 43.455 37.3391 42.1312 38.6629Z" stroke="url(#paint6_linear_3335_1555)" stroke-width="1.90476" stroke-miterlimit="10" stroke-linecap="round" stroke-linejoin="round"/>
<path d="M44.6905 27.3873L48.478 20.6023C48.7013 20.2025 48.9826 19.8265 49.3221 19.487C51.3048 17.5044 54.5304 17.5044 56.513 19.487C58.4957 21.4697 58.4957 24.6953 56.513 26.678C56.1735 27.0175 55.7976 27.2988 55.3978 27.522L42.6949 34.6132" stroke="url(#paint7_linear_3335_1555)" stroke-width="1.90476" stroke-miterlimit="10" stroke-linecap="round" stroke-linejoin="round"/>
</g>
<defs>
<filter id="filter0_i_3335_1555" x="0.5" y="0.5" width="74" height="75" filterUnits="userSpaceOnUse" color-interpolation-filters="sRGB">
<feFlood flood-opacity="0" result="BackgroundImageFix"/>
<feBlend mode="normal" in="SourceGraphic" in2="BackgroundImageFix" result="shape"/>
<feColorMatrix in="SourceAlpha" type="matrix" values="0 0 0 0 0 0 0 0 0 0 0 0 0 0 0 0 0 0 127 0" result="hardAlpha"/>
<feOffset dy="-1"/>
<feGaussianBlur stdDeviation="2"/>
<feComposite in2="hardAlpha" operator="arithmetic" k2="-1" k3="1"/>
<feColorMatrix type="matrix" values="0 0 0 0 0.164706 0 0 0 0 0.176471 0 0 0 0 0.196078 0 0 0 1 0"/>
<feBlend mode="normal" in2="shape" result="effect1_innerShadow_3335_1555"/>
</filter>
<filter id="filter1_i_3335_1555" x="1" y="2" width="73" height="73" filterUnits="userSpaceOnUse" color-interpolation-filters="sRGB">
<feFlood flood-opacity="0" result="BackgroundImageFix"/>
<feBlend mode="normal" in="SourceGraphic" in2="BackgroundImageFix" result="shape"/>
<feColorMatrix in="SourceAlpha" type="matrix" values="0 0 0 0 0 0 0 0 0 0 0 0 0 0 0 0 0 0 127 0" result="hardAlpha"/>
<feOffset dx="-1" dy="1"/>
<feComposite in2="hardAlpha" operator="arithmetic" k2="-1" k3="1"/>
<feColorMatrix type="matrix" values="0 0 0 0 0 0 0 0 0 0 0 0 0 0 0 0 0 0 0.7 0"/>
<feBlend mode="normal" in2="shape" result="effect1_innerShadow_3335_1555"/>
</filter>
<linearGradient id="paint0_linear_3335_1555" x1="59.4" y1="82.3" x2="22.9" y2="9.3" gradientUnits="userSpaceOnUse">
<stop stop-color="#2E2E2E"/>
<stop offset="0.86" stop-color="#151515"/>
</linearGradient>
<radialGradient id="paint1_radial_3335_1555" cx="0" cy="0" r="1" gradientUnits="userSpaceOnUse" gradientTransform="translate(37.5 38.5) rotate(90) scale(36.5)">
<stop stop-color="#151619"/>
<stop offset="0.653846" stop-color="#E1E2E5"/>
<stop offset="0.865385" stop-color="#151619"/>
<stop offset="0.956731" stop-color="#E1E2E5"/>
</radialGradient>
<linearGradient id="paint2_linear_3335_1555" x1="5.36" y1="7.61" x2="69.64" y2="69.39" gradientUnits="userSpaceOnUse">
<stop stop-color="#2A2D32"/>
<stop offset="0.413462" stop-color="#202227"/>
<stop offset="0.581731" stop-color="#2A2D32"/>
<stop offset="1"/>
</linearGradient>
<radialGradient id="paint3_radial_3335_1555" cx="0" cy="0" r="1" gradientUnits="userSpaceOnUse" gradientTransform="translate(37.5 38.5) rotate(90) scale(36.5)">
<stop offset="0.110577" stop-color="#2A2D32"/>
<stop offset="0.980769"/>
</radialGradient>
<linearGradient id="paint4_linear_3335_1555" x1="37.2" y1="-3.59" x2="37.72" y2="69.59" gradientUnits="userSpaceOnUse">
<stop stop-color="#151619"/>
<stop offset="0.38" stop-color="#202227"/>
<stop offset="0.7" stop-color="#4E535F"/>
<stop offset="1" stop-color="#151619"/>
</linearGradient>
<linearGradient id="paint5_linear_3335_1555" x1="32.3063" y1="58.0101" x2="32.3063" y2="26.1088" gradientUnits="userSpaceOnUse">
<stop stop-color="#636363"/>
<stop offset="0.59" stop-color="white"/>
</linearGradient>
<linearGradient id="paint6_linear_3335_1555" x1="39.3857" y1="39.6579" x2="39.3857" y2="32.8761" gradientUnits="userSpaceOnUse">
<stop offset="0.41" stop-color="white"/>
<stop offset="1" stop-color="#636363"/>
</linearGradient>
<linearGradient id="paint7_linear_3335_1555" x1="49.5607" y1="34.6184" x2="49.5607" y2="18.0001" gradientUnits="userSpaceOnUse">
<stop stop-color="#636363"/>
<stop offset="0.59" stop-color="white"/>
</linearGradient>
<clipPath id="clip0_3335_1555">
<rect width="75" height="75" fill="white" transform="translate(0.0999146 0.75)"/>
</clipPath>
</defs>
</svg>
