<svg width="76" height="76" viewBox="0 0 76 76" fill="none" xmlns="http://www.w3.org/2000/svg">
<g clip-path="url(#clip0_3335_1038)">
<path d="M58 2H19C9.61116 2 2 9.61116 2 19V58C2 67.3888 9.61116 75 19 75H58C67.3888 75 75 67.3888 75 58V19C75 9.61116 67.3888 2 58 2Z" fill="url(#paint0_linear_3335_1038)"/>
<g opacity="0.38">
<g filter="url(#filter0_i_3335_1038)">
<path d="M58 6C65.17 6 71 11.83 71 19V58C71 65.17 65.17 71 58 71H19C11.83 71 6 65.17 6 58V19C6 11.83 11.83 6 19 6H58ZM58 2H19C9.61 2 2 9.61 2 19V58C2 67.39 9.61 75 19 75H58C67.39 75 75 67.39 75 58V19C75 9.61 67.39 2 58 2Z" fill="url(#paint1_radial_3335_1038)"/>
</g>
<path d="M58 6C65.17 6 71 11.83 71 19V58C71 65.17 65.17 71 58 71H19C11.83 71 6 65.17 6 58V19C6 11.83 11.83 6 19 6H58ZM58 2H19C9.61 2 2 9.61 2 19V58C2 67.39 9.61 75 19 75H58C67.39 75 75 67.39 75 58V19C75 9.61 67.39 2 58 2Z" stroke="url(#paint2_linear_3335_1038)"/>
</g>
<g filter="url(#filter1_i_3335_1038)">
<path d="M58 2H19C9.61116 2 2 9.61116 2 19V58C2 67.3888 9.61116 75 19 75H58C67.3888 75 75 67.3888 75 58V19C75 9.61116 67.3888 2 58 2Z" fill="url(#paint3_radial_3335_1038)" fill-opacity="0.88"/>
</g>
<path d="M19 2.5H58C67.1127 2.5 74.5 9.8873 74.5 19V58C74.5 67.1127 67.1127 74.5 58 74.5H19C9.8873 74.5 2.5 67.1127 2.5 58V19C2.5 9.8873 9.8873 2.5 19 2.5Z" stroke="url(#paint4_linear_3335_1038)"/>
<path d="M25.7773 24.9509C28.6707 20.7522 33.5125 18 38.9972 18C44.4834 18 49.3263 20.7537 52.2194 24.9542" stroke="url(#paint5_linear_3335_1038)" stroke-width="1.90476" stroke-miterlimit="10" stroke-linecap="round" stroke-linejoin="round"/>
<path d="M46.3398 24.9543H52.2194V19.0747" stroke="url(#paint6_linear_3335_1038)" stroke-width="1.90476" stroke-miterlimit="10" stroke-linecap="round" stroke-linejoin="round"/>
<path d="M52.2194 51.3961C49.3261 55.5948 44.4842 58.347 38.9995 58.347C33.5134 58.347 28.6705 55.5934 25.7773 51.3928" stroke="url(#paint7_linear_3335_1038)" stroke-width="1.90476" stroke-miterlimit="10" stroke-linecap="round" stroke-linejoin="round"/>
<path d="M31.6569 51.3928H25.7773V57.2724" stroke="url(#paint8_linear_3335_1038)" stroke-width="1.90476" stroke-miterlimit="10" stroke-linecap="round" stroke-linejoin="round"/>
<path d="M44.2192 42.7939C44.2192 39.9114 41.8824 37.5747 39 37.5747C36.1175 37.5747 33.7808 39.9114 33.7808 42.7939V45.3607H44.2192V42.7939Z" stroke="url(#paint9_linear_3335_1038)" stroke-width="1.90476" stroke-miterlimit="10" stroke-linecap="round" stroke-linejoin="round"/>
<path d="M39 37.5748C40.8192 37.5748 42.2941 36.1 42.2941 34.2808C42.2941 32.4615 40.8192 30.9867 39 30.9867C37.1807 30.9867 35.7059 32.4615 35.7059 34.2808C35.7059 36.1 37.1807 37.5748 39 37.5748Z" stroke="url(#paint10_linear_3335_1038)" stroke-width="1.90476" stroke-miterlimit="10" stroke-linecap="round" stroke-linejoin="round"/>
<path d="M27.7206 42.0337C27.7206 39.6257 25.7684 37.6735 23.3603 37.6735C20.9522 37.6735 19 39.6257 19 42.0337V44.1781H27.7206V42.0337Z" stroke="url(#paint11_linear_3335_1038)" stroke-width="1.90476" stroke-miterlimit="10" stroke-linecap="round" stroke-linejoin="round"/>
<path d="M23.3603 37.6734C24.8802 37.6734 26.1123 36.4413 26.1123 34.9214C26.1123 33.4015 24.8802 32.1694 23.3603 32.1694C21.8404 32.1694 20.6083 33.4015 20.6083 34.9214C20.6083 36.4413 21.8404 37.6734 23.3603 37.6734Z" stroke="url(#paint12_linear_3335_1038)" stroke-width="1.90476" stroke-miterlimit="10" stroke-linecap="round" stroke-linejoin="round"/>
<path d="M59 42.0337C59 39.6257 57.0478 37.6735 54.6397 37.6735C52.2316 37.6735 50.2794 39.6257 50.2794 42.0337V44.1781H59V42.0337Z" stroke="url(#paint13_linear_3335_1038)" stroke-width="1.90476" stroke-miterlimit="10" stroke-linecap="round" stroke-linejoin="round"/>
<path d="M54.6397 37.6734C56.1596 37.6734 57.3917 36.4413 57.3917 34.9214C57.3917 33.4015 56.1596 32.1694 54.6397 32.1694C53.1199 32.1694 51.8878 33.4015 51.8878 34.9214C51.8878 36.4413 53.1199 37.6734 54.6397 37.6734Z" stroke="url(#paint14_linear_3335_1038)" stroke-width="1.90476" stroke-miterlimit="10" stroke-linecap="round" stroke-linejoin="round"/>
</g>
<defs>
<filter id="filter0_i_3335_1038" x="1.5" y="0.5" width="74" height="75" filterUnits="userSpaceOnUse" color-interpolation-filters="sRGB">
<feFlood flood-opacity="0" result="BackgroundImageFix"/>
<feBlend mode="normal" in="SourceGraphic" in2="BackgroundImageFix" result="shape"/>
<feColorMatrix in="SourceAlpha" type="matrix" values="0 0 0 0 0 0 0 0 0 0 0 0 0 0 0 0 0 0 127 0" result="hardAlpha"/>
<feOffset dy="-1"/>
<feGaussianBlur stdDeviation="2"/>
<feComposite in2="hardAlpha" operator="arithmetic" k2="-1" k3="1"/>
<feColorMatrix type="matrix" values="0 0 0 0 0.164706 0 0 0 0 0.176471 0 0 0 0 0.196078 0 0 0 1 0"/>
<feBlend mode="normal" in2="shape" result="effect1_innerShadow_3335_1038"/>
</filter>
<filter id="filter1_i_3335_1038" x="2" y="2" width="73" height="73" filterUnits="userSpaceOnUse" color-interpolation-filters="sRGB">
<feFlood flood-opacity="0" result="BackgroundImageFix"/>
<feBlend mode="normal" in="SourceGraphic" in2="BackgroundImageFix" result="shape"/>
<feColorMatrix in="SourceAlpha" type="matrix" values="0 0 0 0 0 0 0 0 0 0 0 0 0 0 0 0 0 0 127 0" result="hardAlpha"/>
<feOffset dx="-1" dy="1"/>
<feComposite in2="hardAlpha" operator="arithmetic" k2="-1" k3="1"/>
<feColorMatrix type="matrix" values="0 0 0 0 0 0 0 0 0 0 0 0 0 0 0 0 0 0 0.7 0"/>
<feBlend mode="normal" in2="shape" result="effect1_innerShadow_3335_1038"/>
</filter>
<linearGradient id="paint0_linear_3335_1038" x1="60.4" y1="82.3" x2="23.9" y2="9.3" gradientUnits="userSpaceOnUse">
<stop stop-color="#2E2E2E"/>
<stop offset="0.86" stop-color="#151515"/>
</linearGradient>
<radialGradient id="paint1_radial_3335_1038" cx="0" cy="0" r="1" gradientUnits="userSpaceOnUse" gradientTransform="translate(38.5 38.5) rotate(90) scale(36.5)">
<stop stop-color="#151619"/>
<stop offset="0.653846" stop-color="#E1E2E5"/>
<stop offset="0.865385" stop-color="#151619"/>
<stop offset="0.956731" stop-color="#E1E2E5"/>
</radialGradient>
<linearGradient id="paint2_linear_3335_1038" x1="6.36" y1="7.61" x2="70.64" y2="69.39" gradientUnits="userSpaceOnUse">
<stop stop-color="#2A2D32"/>
<stop offset="0.413462" stop-color="#202227"/>
<stop offset="0.581731" stop-color="#2A2D32"/>
<stop offset="1"/>
</linearGradient>
<radialGradient id="paint3_radial_3335_1038" cx="0" cy="0" r="1" gradientUnits="userSpaceOnUse" gradientTransform="translate(38.5 38.5) rotate(90) scale(36.5)">
<stop offset="0.110577" stop-color="#2A2D32"/>
<stop offset="0.980769"/>
</radialGradient>
<linearGradient id="paint4_linear_3335_1038" x1="38.2" y1="-3.59" x2="38.72" y2="69.59" gradientUnits="userSpaceOnUse">
<stop stop-color="#151619"/>
<stop offset="0.38" stop-color="#202227"/>
<stop offset="0.7" stop-color="#4E535F"/>
<stop offset="1" stop-color="#151619"/>
</linearGradient>
<linearGradient id="paint5_linear_3335_1038" x1="37.6391" y1="17.9978" x2="37.6391" y2="24.9542" gradientUnits="userSpaceOnUse">
<stop stop-color="#636363"/>
<stop offset="0.59" stop-color="white"/>
</linearGradient>
<linearGradient id="paint6_linear_3335_1038" x1="48.9774" y1="19.0729" x2="48.9774" y2="24.9543" gradientUnits="userSpaceOnUse">
<stop offset="0.41" stop-color="white"/>
<stop offset="1" stop-color="#636363"/>
</linearGradient>
<linearGradient id="paint7_linear_3335_1038" x1="37.6391" y1="51.3906" x2="37.6391" y2="58.347" gradientUnits="userSpaceOnUse">
<stop stop-color="#636363"/>
<stop offset="0.59" stop-color="white"/>
</linearGradient>
<linearGradient id="paint8_linear_3335_1038" x1="28.4149" y1="51.391" x2="28.4149" y2="57.2724" gradientUnits="userSpaceOnUse">
<stop offset="0.41" stop-color="white"/>
<stop offset="1" stop-color="#636363"/>
</linearGradient>
<linearGradient id="paint9_linear_3335_1038" x1="38.4634" y1="37.5723" x2="38.4634" y2="45.3607" gradientUnits="userSpaceOnUse">
<stop offset="0.41" stop-color="white"/>
<stop offset="1" stop-color="#636363"/>
</linearGradient>
<linearGradient id="paint10_linear_3335_1038" x1="38.6613" y1="30.9846" x2="38.6613" y2="37.5748" gradientUnits="userSpaceOnUse">
<stop stop-color="#636363"/>
<stop offset="0.59" stop-color="white"/>
</linearGradient>
<linearGradient id="paint11_linear_3335_1038" x1="27.7185" y1="40.9248" x2="19.002" y2="40.9248" gradientUnits="userSpaceOnUse">
<stop stop-color="#636363"/>
<stop offset="0.59" stop-color="white"/>
</linearGradient>
<linearGradient id="paint12_linear_3335_1038" x1="23.0774" y1="32.1677" x2="23.0774" y2="37.6734" gradientUnits="userSpaceOnUse">
<stop stop-color="#636363"/>
<stop offset="0.59" stop-color="white"/>
</linearGradient>
<linearGradient id="paint13_linear_3335_1038" x1="58.998" y1="40.9248" x2="50.2815" y2="40.9248" gradientUnits="userSpaceOnUse">
<stop offset="0.41" stop-color="white"/>
<stop offset="1" stop-color="#636363"/>
</linearGradient>
<linearGradient id="paint14_linear_3335_1038" x1="54.3568" y1="32.1677" x2="54.3568" y2="37.6734" gradientUnits="userSpaceOnUse">
<stop stop-color="#636363"/>
<stop offset="0.59" stop-color="white"/>
</linearGradient>
<clipPath id="clip0_3335_1038">
<rect width="75" height="75" fill="white" transform="translate(0.899963 0.75)"/>
</clipPath>
</defs>
</svg>
