<svg width="74" height="75" viewBox="0 0 74 75" fill="none" xmlns="http://www.w3.org/2000/svg">
<g clip-path="url(#clip0_3335_1346)">
<g filter="url(#filter0_n_3335_1346)">
<path d="M57 1H18C8.61116 1 1 8.61116 1 18V57C1 66.3888 8.61116 74 18 74H57C66.3888 74 74 66.3888 74 57V18C74 8.61116 66.3888 1 57 1Z" fill="url(#paint0_linear_3335_1346)"/>
</g>
<path d="M42.0623 29.4524C42.0623 26.6566 39.7958 24.3901 37 24.3901C34.2042 24.3901 31.9378 26.6566 31.9378 29.4524V31.942H42.0623V29.4524Z" stroke="#202227" stroke-width="1.90476" stroke-miterlimit="10" stroke-linecap="round" stroke-linejoin="round"/>
<path d="M37 24.39C38.7646 24.39 40.195 22.9596 40.195 21.195C40.195 19.4305 38.7646 18 37 18C35.2355 18 33.805 19.4305 33.805 21.195C33.805 22.9596 35.2355 24.39 37 24.39Z" stroke="#202227" stroke-width="1.90476" stroke-miterlimit="10" stroke-linecap="round" stroke-linejoin="round"/>
<path d="M42.0623 55.5104C42.0623 52.7146 39.7958 50.4481 37 50.4481C34.2042 50.4481 31.9378 52.7146 31.9378 55.5104V58H42.0623V55.5104Z" stroke="#202227" stroke-width="1.90476" stroke-miterlimit="10" stroke-linecap="round" stroke-linejoin="round"/>
<path d="M37 50.4481C38.7646 50.4481 40.195 49.0177 40.195 47.2531C40.195 45.4886 38.7646 44.0581 37 44.0581C35.2355 44.0581 33.805 45.4886 33.805 47.2531C33.805 49.0177 35.2355 50.4481 37 50.4481Z" stroke="#202227" stroke-width="1.90476" stroke-miterlimit="10" stroke-linecap="round" stroke-linejoin="round"/>
<path d="M27.1245 42.4813C27.1245 39.6855 24.858 37.4191 22.0622 37.4191C19.2665 37.4191 17 39.6855 17 42.4813V44.9709H27.1245V42.4813Z" stroke="#202227" stroke-width="1.90476" stroke-miterlimit="10" stroke-linecap="round" stroke-linejoin="round"/>
<path d="M22.0622 37.4191C23.8268 37.4191 25.2573 35.9886 25.2573 34.2241C25.2573 32.4595 23.8268 31.0291 22.0622 31.0291C20.2977 31.0291 18.8672 32.4595 18.8672 34.2241C18.8672 35.9886 20.2977 37.4191 22.0622 37.4191Z" stroke="#202227" stroke-width="1.90476" stroke-miterlimit="10" stroke-linecap="round" stroke-linejoin="round"/>
<path d="M57 42.4813C57 39.6855 54.7335 37.4191 51.9378 37.4191C49.142 37.4191 46.8755 39.6855 46.8755 42.4813V44.9709H57V42.4813Z" stroke="#202227" stroke-width="1.90476" stroke-miterlimit="10" stroke-linecap="round" stroke-linejoin="round"/>
<path d="M51.9378 37.4191C53.7023 37.4191 55.1328 35.9886 55.1328 34.2241C55.1328 32.4595 53.7023 31.0291 51.9378 31.0291C50.1732 31.0291 48.7427 32.4595 48.7427 34.2241C48.7427 35.9886 50.1732 37.4191 51.9378 37.4191Z" stroke="#202227" stroke-width="1.90476" stroke-miterlimit="10" stroke-linecap="round" stroke-linejoin="round"/>
<path d="M22.0622 27.2945V26.1742C22.0622 23.4242 24.2915 21.1949 27.0415 21.1949H30.0705" stroke="#202227" stroke-width="1.90476" stroke-miterlimit="10" stroke-linecap="round" stroke-linejoin="round"/>
<path d="M51.9378 27.2945V26.1742C51.9378 23.4242 49.7085 21.1949 46.9585 21.1949H43.9295" stroke="#202227" stroke-width="1.90476" stroke-miterlimit="10" stroke-linecap="round" stroke-linejoin="round"/>
<path d="M22.0622 48.7053V49.8257C22.0622 52.5756 24.2915 54.8049 27.0415 54.8049H28.2033" stroke="#202227" stroke-width="1.90476" stroke-miterlimit="10" stroke-linecap="round" stroke-linejoin="round"/>
<path d="M51.9377 48.7053V49.8257C51.9377 52.5756 49.7084 54.8049 46.9585 54.8049H45.7967" stroke="#202227" stroke-width="1.90476" stroke-miterlimit="10" stroke-linecap="round" stroke-linejoin="round"/>
</g>
<defs>
<filter id="filter0_n_3335_1346" x="1" y="1" width="73" height="73" filterUnits="userSpaceOnUse" color-interpolation-filters="sRGB">
<feFlood flood-opacity="0" result="BackgroundImageFix"/>
<feBlend mode="normal" in="SourceGraphic" in2="BackgroundImageFix" result="shape"/>
<feTurbulence type="fractalNoise" baseFrequency="10 10" stitchTiles="stitch" numOctaves="3" result="noise" seed="6806" />
<feColorMatrix in="noise" type="luminanceToAlpha" result="alphaNoise" />
<feComponentTransfer in="alphaNoise" result="coloredNoise1">
<feFuncA type="discrete" tableValues="0 0 0 0 0 0 0 0 0 0 0 0 1 1 1 1 1 1 1 1 1 1 1 1 1 1 1 1 1 1 1 1 1 1 1 1 1 1 0 0 0 0 0 0 0 0 0 0 0 0 0 0 0 0 0 0 0 0 0 0 0 0 0 0 0 0 0 0 0 0 0 0 0 0 0 0 0 0 0 0 0 0 0 0 0 0 0 0 0 0 0 0 0 0 0 0 0 0 0 0 "/>
</feComponentTransfer>
<feComposite operator="in" in2="shape" in="coloredNoise1" result="noise1Clipped" />
<feFlood flood-color="#FFFFFF" result="color1Flood" />
<feComposite operator="in" in2="noise1Clipped" in="color1Flood" result="color1" />
<feMerge result="effect1_noise_3335_1346">
<feMergeNode in="shape" />
<feMergeNode in="color1" />
</feMerge>
</filter>
<linearGradient id="paint0_linear_3335_1346" x1="59.4" y1="81.3" x2="22.9" y2="8.3" gradientUnits="userSpaceOnUse">
<stop stop-color="#68D787"/>
<stop offset="0.86" stop-color="#58FFA6"/>
</linearGradient>
<clipPath id="clip0_3335_1346">
<rect width="74" height="74" fill="white" transform="translate(-6.10352e-05 0.75)"/>
</clipPath>
</defs>
</svg>
